<mxfile host="app.diagrams.net" modified="2023-03-12T02:10:12.519Z" agent="5.0 (Windows NT 10.0; Win64; x64) AppleWebKit/537.36 (KHTML, like Gecko) Chrome/110.0.0.0 Safari/537.36 Edg/110.0.1587.69" etag="O6OI4U_mttoVlwf82MCn" version="21.0.6" type="github">
  <diagram name="第 1 页" id="6d6CxKYQMYi7uWYeXLqO">
    <mxGraphModel dx="835" dy="612" grid="1" gridSize="10" guides="1" tooltips="1" connect="1" arrows="1" fold="1" page="1" pageScale="1" pageWidth="1169" pageHeight="827" math="0" shadow="0">
      <root>
        <mxCell id="0" />
        <mxCell id="1" parent="0" />
        <mxCell id="Voz9sAi3wrNxGFLOuAws-3" style="edgeStyle=orthogonalEdgeStyle;rounded=0;orthogonalLoop=1;jettySize=auto;html=1;exitX=1;exitY=0.5;exitDx=0;exitDy=0;" edge="1" parent="1" source="Voz9sAi3wrNxGFLOuAws-1" target="Voz9sAi3wrNxGFLOuAws-2">
          <mxGeometry relative="1" as="geometry" />
        </mxCell>
        <mxCell id="Voz9sAi3wrNxGFLOuAws-1" value="&lt;font style=&quot;font-size: 22px;&quot;&gt;创建进程&lt;/font&gt;" style="ellipse;whiteSpace=wrap;html=1;" vertex="1" parent="1">
          <mxGeometry x="150" y="320" width="140" height="96" as="geometry" />
        </mxCell>
        <mxCell id="Voz9sAi3wrNxGFLOuAws-5" value="" style="edgeStyle=orthogonalEdgeStyle;rounded=0;orthogonalLoop=1;jettySize=auto;html=1;" edge="1" parent="1" source="Voz9sAi3wrNxGFLOuAws-2" target="Voz9sAi3wrNxGFLOuAws-4">
          <mxGeometry relative="1" as="geometry">
            <Array as="points">
              <mxPoint x="430" y="490" />
              <mxPoint x="430" y="490" />
            </Array>
          </mxGeometry>
        </mxCell>
        <mxCell id="Voz9sAi3wrNxGFLOuAws-9" value="&lt;font style=&quot;font-size: 22px;&quot;&gt;调度&lt;/font&gt;" style="edgeLabel;html=1;align=center;verticalAlign=middle;resizable=0;points=[];" vertex="1" connectable="0" parent="Voz9sAi3wrNxGFLOuAws-5">
          <mxGeometry x="-0.2738" relative="1" as="geometry">
            <mxPoint x="-20" y="11" as="offset" />
          </mxGeometry>
        </mxCell>
        <mxCell id="Voz9sAi3wrNxGFLOuAws-2" value="&lt;font style=&quot;font-size: 21px;&quot;&gt;就绪状态&lt;/font&gt;" style="rounded=0;whiteSpace=wrap;html=1;" vertex="1" parent="1">
          <mxGeometry x="390" y="338" width="120" height="60" as="geometry" />
        </mxCell>
        <mxCell id="Voz9sAi3wrNxGFLOuAws-7" style="edgeStyle=orthogonalEdgeStyle;rounded=0;orthogonalLoop=1;jettySize=auto;html=1;" edge="1" parent="1" source="Voz9sAi3wrNxGFLOuAws-4" target="Voz9sAi3wrNxGFLOuAws-6">
          <mxGeometry relative="1" as="geometry">
            <Array as="points">
              <mxPoint x="610" y="560" />
              <mxPoint x="610" y="560" />
            </Array>
          </mxGeometry>
        </mxCell>
        <mxCell id="Voz9sAi3wrNxGFLOuAws-17" value="&lt;font style=&quot;font-size: 21px;&quot;&gt;等待事件，如I/O事件&lt;/font&gt;" style="edgeLabel;html=1;align=center;verticalAlign=middle;resizable=0;points=[];" vertex="1" connectable="0" parent="Voz9sAi3wrNxGFLOuAws-7">
          <mxGeometry x="0.2316" y="1" relative="1" as="geometry">
            <mxPoint x="-35" y="21" as="offset" />
          </mxGeometry>
        </mxCell>
        <mxCell id="Voz9sAi3wrNxGFLOuAws-8" style="edgeStyle=orthogonalEdgeStyle;rounded=0;orthogonalLoop=1;jettySize=auto;html=1;exitX=0.75;exitY=0;exitDx=0;exitDy=0;entryX=0.75;entryY=1;entryDx=0;entryDy=0;" edge="1" parent="1" source="Voz9sAi3wrNxGFLOuAws-4" target="Voz9sAi3wrNxGFLOuAws-2">
          <mxGeometry relative="1" as="geometry">
            <Array as="points">
              <mxPoint x="480" y="450" />
              <mxPoint x="480" y="450" />
            </Array>
          </mxGeometry>
        </mxCell>
        <mxCell id="Voz9sAi3wrNxGFLOuAws-10" value="&lt;font style=&quot;font-size: 22px;&quot;&gt;时间片完&lt;/font&gt;" style="edgeLabel;html=1;align=center;verticalAlign=middle;resizable=0;points=[];" vertex="1" connectable="0" parent="Voz9sAi3wrNxGFLOuAws-8">
          <mxGeometry x="0.2761" y="-4" relative="1" as="geometry">
            <mxPoint x="26" y="22" as="offset" />
          </mxGeometry>
        </mxCell>
        <mxCell id="Voz9sAi3wrNxGFLOuAws-15" value="" style="edgeStyle=orthogonalEdgeStyle;rounded=0;orthogonalLoop=1;jettySize=auto;html=1;" edge="1" parent="1" source="Voz9sAi3wrNxGFLOuAws-4" target="Voz9sAi3wrNxGFLOuAws-14">
          <mxGeometry relative="1" as="geometry" />
        </mxCell>
        <mxCell id="Voz9sAi3wrNxGFLOuAws-18" value="&lt;font style=&quot;font-size: 22px;&quot;&gt;终止进程&lt;/font&gt;" style="edgeLabel;html=1;align=center;verticalAlign=middle;resizable=0;points=[];" vertex="1" connectable="0" parent="Voz9sAi3wrNxGFLOuAws-15">
          <mxGeometry x="-0.3238" relative="1" as="geometry">
            <mxPoint y="-1" as="offset" />
          </mxGeometry>
        </mxCell>
        <mxCell id="Voz9sAi3wrNxGFLOuAws-4" value="&lt;font style=&quot;font-size: 22px;&quot;&gt;执行&lt;/font&gt;" style="rounded=0;whiteSpace=wrap;html=1;" vertex="1" parent="1">
          <mxGeometry x="400" y="530" width="120" height="60" as="geometry" />
        </mxCell>
        <mxCell id="Voz9sAi3wrNxGFLOuAws-6" value="&lt;font style=&quot;font-size: 22px;&quot;&gt;阻塞&lt;/font&gt;" style="rounded=0;whiteSpace=wrap;html=1;" vertex="1" parent="1">
          <mxGeometry x="830" y="530" width="120" height="60" as="geometry" />
        </mxCell>
        <mxCell id="Voz9sAi3wrNxGFLOuAws-13" value="" style="curved=1;endArrow=classic;html=1;rounded=0;entryX=1;entryY=0.5;entryDx=0;entryDy=0;exitX=0.5;exitY=0;exitDx=0;exitDy=0;" edge="1" parent="1" source="Voz9sAi3wrNxGFLOuAws-6" target="Voz9sAi3wrNxGFLOuAws-2">
          <mxGeometry width="50" height="50" relative="1" as="geometry">
            <mxPoint x="770" y="530" as="sourcePoint" />
            <mxPoint x="770" y="480" as="targetPoint" />
            <Array as="points">
              <mxPoint x="640" y="400" />
            </Array>
          </mxGeometry>
        </mxCell>
        <mxCell id="Voz9sAi3wrNxGFLOuAws-14" value="&lt;font style=&quot;font-size: 22px;&quot;&gt;执行终止&lt;/font&gt;" style="whiteSpace=wrap;html=1;rounded=0;" vertex="1" parent="1">
          <mxGeometry x="400" y="730" width="120" height="60" as="geometry" />
        </mxCell>
        <mxCell id="Voz9sAi3wrNxGFLOuAws-19" value="&lt;font style=&quot;font-size: 21px;&quot;&gt;事件结束，如I/O事件&lt;/font&gt;" style="edgeLabel;html=1;align=center;verticalAlign=middle;resizable=0;points=[];" vertex="1" connectable="0" parent="1">
          <mxGeometry x="690" y="430" as="geometry" />
        </mxCell>
      </root>
    </mxGraphModel>
  </diagram>
</mxfile>
